<svg xmlns="http://www.w3.org/2000/svg" xmlns:xlink="http://www.w3.org/1999/xlink" viewBox="0 0 80 80"><rect x="4" y="2" width="72" height="76" rx="9" fill="#fbf1d8" stroke="#8a5f16" stroke-width="2"/><rect x="7.5" y="5.5" width="65" height="69" rx="7" fill="none" stroke="#d9a73a" stroke-width="1.5"/><rect x="12" y="10" width="56" height="52" rx="8" fill="#f2cf6e" stroke="#2a1a12" stroke-width="2.5"/><rect x="14" y="13" width="52" height="46" rx="6" fill="#fffaf0" opacity=".55"/><svg x="15" y="13" width="50" height="46" viewBox="0 0 104 105" preserveAspectRatio="xMidYMid meet" fill="#2a1a12">
  <circle cx="51.5" cy="52.5" fill="#fff" r="47.5"></circle>
  <path clip-rule="evenodd" d="m47.4225 62.5589h4.4404v-12.4605h-11.5856v4.7859h5.6731c-1.3405 1.683-3.052 2.3073-5.0806 2.2216-1.4003-.0551-2.5553-.5998-3.429-1.6953-1.2028-1.5117-1.6397-3.2681-1.2866-5.1653.3531-1.885 1.4183-3.2253 3.2494-3.8373.8797-.2938 1.7953-.2754 2.6989-.1836 1.4004.1407 2.4596.8017 2.9443 2.2216.0898.2631.2573.2876.4847.2876 1.2312.0041 2.4598.0136 3.6892.0231.6171.0048 1.2343.0095 1.8522.0136h.4309c0-.1061.0038-.2037.0073-.2954.0064-.1675.012-.315-.0073-.4574-.0538-.3672-.1137-.7344-.2154-1.0893-.7181-2.5399-2.3877-4.2351-4.6677-5.349-2.304-1.1261-4.7515-1.4076-7.2709-1.1322-2.5373.2754-4.7874 1.2485-6.5827 3.1151-.5189.5392-.9642 1.1565-1.404 1.7664-.1992.2763-.3974.5511-.6007.8163-.0343-.0543-.0719-.116-.1126-.1828-.1015-.1665-.2218-.3637-.3542-.5516-.1975-.2754-.401-.5508-.6224-.8079-2.1124-2.399-4.8532-3.4211-7.9112-3.5251-2.2396-.0767-4.4793-.0585-6.719-.0404-.9798.008-1.9597.0159-2.9396.0159-.0765 0-.153.005-.2327.0102-.0449.0029-.0908.0059-.1383.0082v21.4937h.4847c.776 0 1.5524.0023 2.3291.0047 2.0208.0061 4.0438.0123 6.0669-.0231 1.143-.0183 2.2919-.1224 3.411-.3488 2.3698-.4774 4.4044-1.6035 5.9304-3.568.2232-.2886.4257-.5954.6345-.9119.0879-.1331.177-.268.2691-.4039.0429.073.0815.1417.1184.2073.0249.0444.049.0873.0731.1293.9575 1.7197 2.298 3.0355 4.0035 3.9719 1.4063.7711 2.9143 1.2118 4.4942 1.3464 1.0113.0918 2.0406.0735 3.0519-.0183 1.4482-.1286 2.7169-.7957 3.8898-1.6525.1779-.1277.3607-.2457.5618-.3756.1168-.0754.2398-.1548.3717-.2425zm-29.3049-5.5571v-10.4041c.3061 0 .6109-.0034.9147-.0068.6051-.0068 1.2066-.0136 1.8082.0068 2.4176.0857 4.1411 1.6402 4.5899 3.9474.4668 2.3808-.371 5.0797-2.7767 6.0283-.6104.2387-1.2926.355-1.9509.4101-.5964.0472-1.1957.0372-1.8042.027-.2585-.0043-.5187-.0087-.781-.0087zm35.4328-15.9244v21.4876l.006.0061h.2992c1.9321 0 3.864.001 5.7956.002 6.4382.0032 12.8745.0065 19.3144-.0265 1.2567-.0122 2.5433-.1958 3.7581-.5202 3.1716-.8445 5.5055-2.7663 6.7143-5.9426.7121-1.885.8438-3.8495.6343-5.8447-.1915-1.836-.754-3.5312-1.8431-5.0062-2.1244-2.8703-5.1106-4.0331-8.4977-4.1555-2.2424-.0807-4.4878-.0612-6.7321-.0417-.9898.0086-1.9793.0172-2.9683.0172h-.4728v16.004h-9.6047v-15.9795zm23.3004 15.8048c-.1993-.0014-.4017-.0028-.6081-.0028v-10.1348c.0042-.0014.0102-.0042.0177-.0075.0248-.0111.0652-.0292.102-.0292.2566-.0041.5129-.0089.7691-.0136.8907-.0163 1.7795-.0327 2.6719-.0232 1.131.0184 1.9269.6977 2.5911 1.5362.9156 1.1567 1.4123 2.4847 1.2867 3.9903-.1616 1.8727-1.538 4.2045-3.2615 4.5533-.5715.116-1.1686.1182-1.7632.1203-.221.0008-.4416.0016-.6604.0082-.3762.0081-.7551.0055-1.1453.0028z" fill="#0a1f19" fill-rule="evenodd"></path>
</svg><circle cx="9" cy="7" r="1.6" fill="#8a5f16"/><circle cx="71" cy="7" r="1.6" fill="#8a5f16"/><circle cx="9" cy="73" r="1.6" fill="#8a5f16"/><circle cx="71" cy="73" r="1.6" fill="#8a5f16"/><text x="40" y="71.5" text-anchor="middle" font-family="Georgia,'Times New Roman',serif" font-size="7.5" font-weight="700" letter-spacing=".8" fill="#7d1418">GOLD</text></svg>